<?xml version="1.0" encoding="UTF-8"?>
<svg xmlns="http://www.w3.org/2000/svg" xmlns:xlink="http://www.w3.org/1999/xlink" width="20px" height="20px" viewBox="0 0 20 20" version="1.1">
<g id="surface1">
<path style=" stroke:none;fill-rule:nonzero;fill:rgb(96.078431%,0%,0%);fill-opacity:1;" d="M 14.6875 1.171875 C 13.601562 1.171875 12.605469 1.515625 11.730469 2.195312 C 10.890625 2.84375 10.328125 3.671875 10 4.273438 C 9.671875 3.671875 9.109375 2.84375 8.269531 2.195312 C 7.394531 1.515625 6.398438 1.171875 5.3125 1.171875 C 2.285156 1.171875 0 3.648438 0 6.933594 C 0 10.484375 2.847656 12.910156 7.164062 16.585938 C 7.894531 17.210938 8.726562 17.917969 9.589844 18.671875 C 9.703125 18.773438 9.847656 18.828125 10 18.828125 C 10.152344 18.828125 10.296875 18.773438 10.410156 18.671875 C 11.273438 17.917969 12.105469 17.210938 12.835938 16.585938 C 17.152344 12.910156 20 10.484375 20 6.933594 C 20 3.648438 17.714844 1.171875 14.6875 1.171875 Z M 14.6875 1.171875 "/>
</g>
</svg>
