<svg id="Calque_1" data-name="Calque 1" xmlns="http://www.w3.org/2000/svg" viewBox="0 0 30 30"><path d="M15.05,1.91a4.92,4.92,0,1,1,0,9.83,4.92,4.92,0,0,1-4.91-4.91,4.92,4.92,0,0,1,4.91-4.92h0m0-1.91a6.83,6.83,0,1,0,0,13.65h0A6.83,6.83,0,1,0,15.05,0Z"/><path d="M15,16.86a10.32,10.32,0,0,1,7.79,3.68,13.57,13.57,0,0,1,3.24,7.55H4a13.46,13.46,0,0,1,3.24-7.55A10.32,10.32,0,0,1,15,16.86m0-1.92A12.26,12.26,0,0,0,5.8,19.28,15.65,15.65,0,0,0,2,29.67V30H28.06v-.33h0a15.69,15.69,0,0,0-3.81-10.4A12.27,12.27,0,0,0,15,14.94Z"/></svg>